<svg t="1760426253117" class="icon" viewBox="0 0 1024 1024" version="1.1" xmlns="http://www.w3.org/2000/svg" p-id="20457" width="200" height="200"><path d="M763.733333 281.6c55.466667 0 98.133333 42.666667 98.133334 98.133333v384c0 55.466667-42.666667 98.133333-98.133334 98.133334h-384c-55.466667 0-98.133333-42.666667-98.133333-98.133334v-384c0-55.466667 42.666667-98.133333 98.133333-98.133333h384z m51.2 482.133333v-384c0-29.866667-21.333333-51.2-51.2-51.2h-384c-29.866667 0-51.2 21.333333-51.2 51.2v384c0 29.866667 21.333333 51.2 51.2 51.2h384c25.6 0 51.2-21.333333 51.2-51.2z m-554.666666-68.266666h21.333333v46.933333h-21.333333c-25.6 0-51.2-8.533333-68.266667-29.866667-17.066667-17.066667-29.866667-42.666667-29.866667-68.266666v-384c0-51.2 42.666667-98.133333 98.133334-98.133334h388.266666c51.2 0 98.133333 42.666667 98.133334 98.133334v25.6h-46.933334v-25.6c0-12.8-4.266667-25.6-12.8-34.133334-8.533333-8.533333-21.333333-12.8-34.133333-12.8H260.266667c-25.6 0-51.2 21.333333-51.2 51.2v384c0 21.333333 21.333333 46.933333 51.2 46.933334z" fill="#bfbfbf" p-id="20458" data-spm-anchor-id="a313x.search_index.0.i6.4a633a811o8odp" class="selected"></path></svg>